<?xml version="1.0" encoding="UTF-8"?>
<svg version="1.1" xmlns="http://www.w3.org/2000/svg" width="1280" height="1280">
<path d="M0,0 L1280,0 L1280,1280 L0,1280 Z " fill="#26BBFF" transform="translate(0,0)"/>
<path d="M0,0 L481,0 L519,18 L547,31 L583,48 L611,61 L639,74 L640,75 L640,555 L624,563 L590,579 L560,593 L526,609 L496,623 L481,630 L0,630 Z " fill="#FEFEFF" transform="translate(320,325)"/>
<path d="M0,0 L320,0 L320,90 L0,90 Z " fill="#26BBFF" transform="translate(480,715)"/>
<path d="M0,0 L320,0 L320,90 L0,90 Z " fill="#26BBFF" transform="translate(480,475)"/>
</svg>
